<?xml version="1.0" standalone="no"?>
<svg xmlns="http://www.w3.org/2000/svg" viewBox="0 0 102 69" width="102" height="69"><g fill="#ead017" color="#ead017" transform="translate(33.356 0) scale(0.35) "><svg width="100.0" height="100.0" x="0.0" y="0.0" viewBox="0 0 100 100"><path d="M97.074,10.116c0.016-0.026,0.031-0.051,0.045-0.079c0.016-0.031,0.025-0.063,0.037-0.096c0.012-0.03,0.023-0.06,0.031-0.09  c0.008-0.03,0.012-0.061,0.018-0.092c0.006-0.035,0.012-0.072,0.014-0.108c0-0.008,0.002-0.017,0.002-0.025  c0.002-0.022-0.002-0.044-0.004-0.065c-0.002-0.037-0.002-0.074-0.008-0.111c-0.006-0.037-0.014-0.072-0.023-0.107  C97.18,9.321,97.18,9.299,97.17,9.278c0-0.009-0.008-0.016-0.01-0.024c-0.012-0.037-0.029-0.07-0.045-0.104  c-0.014-0.027-0.025-0.055-0.041-0.081c-0.018-0.029-0.039-0.055-0.059-0.082c-0.02-0.026-0.039-0.054-0.061-0.078  s-0.047-0.044-0.07-0.066c-0.025-0.022-0.047-0.045-0.074-0.065s-0.057-0.036-0.086-0.054c-0.025-0.017-0.051-0.034-0.08-0.047  c-0.029-0.015-0.061-0.025-0.094-0.037c-0.031-0.012-0.062-0.024-0.094-0.033c-0.029-0.007-0.059-0.011-0.088-0.016  c-0.039-0.007-0.076-0.013-0.115-0.015c-0.01-0.001-0.016-0.003-0.025-0.004L37.498,6.818c-0.015,0-0.029,0.003-0.044,0.003  c-0.014,0-0.026-0.002-0.04-0.002c-0.018,0.001-0.035,0.007-0.053,0.008c-0.041,0.004-0.079,0.01-0.118,0.018  c-0.027,0.006-0.052,0.013-0.077,0.021c-0.039,0.013-0.077,0.026-0.112,0.042c-0.026,0.011-0.049,0.023-0.073,0.037  c-0.033,0.018-0.065,0.038-0.096,0.059c-0.024,0.017-0.046,0.035-0.07,0.054c-0.026,0.022-0.052,0.045-0.077,0.071  c-0.022,0.022-0.042,0.046-0.062,0.071c-0.021,0.025-0.041,0.051-0.06,0.08c-0.018,0.027-0.034,0.056-0.05,0.085  c-0.015,0.028-0.03,0.058-0.042,0.088C36.511,7.485,36.5,7.518,36.49,7.55c-0.009,0.032-0.018,0.062-0.024,0.095  c-0.006,0.035-0.011,0.07-0.014,0.106c-0.002,0.02-0.007,0.039-0.008,0.06c0,0.014,0.003,0.027,0.003,0.042  c0,0.015-0.003,0.028-0.002,0.042l1.442,27.521L8.242,17.189l1.791-2.178c0,0,0-0.001,0.001-0.001l0.001-0.002  c0.003-0.003,0.004-0.007,0.007-0.011c0.009-0.011,0.017-0.023,0.024-0.035c0.005-0.01,0.012-0.019,0.017-0.029  c0.002-0.006,0.005-0.012,0.008-0.018c0-0.001,0.001-0.002,0.002-0.003c0.002-0.006,0.003-0.012,0.006-0.019  c0.003-0.01,0.007-0.021,0.01-0.03c0.001-0.006,0.003-0.012,0.004-0.018c0.002-0.009,0.003-0.017,0.004-0.026  c0.001-0.01,0.003-0.02,0.004-0.03c0-0.003,0.001-0.007,0.001-0.011c0-0.002,0-0.005,0-0.007c0-0.009,0-0.019-0.001-0.027  c0-0.01-0.001-0.021-0.002-0.03c-0.001-0.006-0.002-0.013-0.002-0.02c-0.001-0.007-0.004-0.015-0.006-0.023  c-0.002-0.01-0.005-0.02-0.009-0.029c-0.002-0.006-0.003-0.014-0.006-0.02c-0.002-0.007-0.007-0.014-0.01-0.02  c-0.004-0.01-0.009-0.019-0.015-0.029c-0.004-0.005-0.005-0.011-0.009-0.016c-0.004-0.007-0.01-0.013-0.015-0.02  c-0.006-0.008-0.012-0.017-0.019-0.024c-0.004-0.004-0.008-0.009-0.012-0.014c-0.007-0.006-0.015-0.012-0.021-0.019  c-0.004-0.004-0.008-0.009-0.013-0.013c-0.002-0.001-0.005-0.003-0.008-0.006c-0.004-0.003-0.009-0.007-0.014-0.01  c-0.008-0.005-0.017-0.01-0.025-0.015c-0.008-0.005-0.017-0.011-0.026-0.016c-0.005-0.002-0.01-0.004-0.016-0.007  c-0.002-0.001-0.004-0.002-0.006-0.004l-2.494-1.042c-0.005-0.002-0.01-0.002-0.015-0.005c-0.019-0.006-0.037-0.013-0.057-0.017  c-0.011-0.002-0.023-0.002-0.034-0.003c-0.013-0.001-0.026-0.004-0.04-0.004c-0.022,0-0.043,0.002-0.064,0.006  c-0.003,0-0.007,0-0.011,0.001H7.171c-0.001,0-0.001,0-0.002,0L3.089,14.14c-0.006,0-0.011,0.003-0.017,0.005  c-0.011,0.002-0.022,0.005-0.033,0.009c-0.007,0.002-0.013,0.004-0.019,0.006C3.013,14.164,3.007,14.167,3,14.17  c-0.01,0.004-0.02,0.009-0.028,0.015c-0.006,0.003-0.013,0.006-0.019,0.01c-0.007,0.004-0.012,0.008-0.018,0.013  c-0.008,0.005-0.015,0.011-0.023,0.017c-0.006,0.006-0.012,0.011-0.018,0.016c-0.005,0.006-0.009,0.011-0.015,0.016  c-0.005,0.007-0.012,0.013-0.018,0.021c-0.005,0.007-0.01,0.014-0.016,0.021c-0.003,0.005-0.006,0.011-0.01,0.017  c-0.005,0.008-0.01,0.016-0.014,0.024c-0.004,0.007-0.008,0.015-0.011,0.022c-0.003,0.007-0.005,0.013-0.007,0.02  c-0.003,0.01-0.007,0.02-0.01,0.029c-0.002,0.007-0.004,0.014-0.006,0.021c-0.002,0.008-0.002,0.016-0.004,0.023  c-0.001,0.011-0.003,0.022-0.003,0.033c-0.001,0.005-0.002,0.01-0.002,0.015c0,0.001,0,0.003,0,0.005c0,0.008,0,0.016,0,0.024  c0,0.006,0,0.012,0,0.018l0.625,7.485c0,0,0,0.001,0,0.002c0.001,0.007,0.002,0.015,0.004,0.021  c0.002,0.013,0.004,0.025,0.007,0.037c0.003,0.012,0.007,0.024,0.011,0.036c0.004,0.011,0.008,0.022,0.014,0.033  c0,0.001,0.001,0.002,0.001,0.004c0.001,0.002,0.002,0.005,0.004,0.008c0.003,0.007,0.008,0.013,0.012,0.021  c0.006,0.011,0.013,0.021,0.02,0.032c0.007,0.01,0.015,0.019,0.023,0.028c0.007,0.009,0.015,0.017,0.023,0.024  c0.003,0.003,0.006,0.006,0.009,0.008c0.004,0.003,0.007,0.007,0.01,0.01c0.003,0.002,0.006,0.003,0.008,0.005  c0.027,0.021,0.056,0.04,0.088,0.054c0.001,0,0.002,0,0.004,0.001c0.002,0.001,0.005,0.001,0.008,0.003h0  c0.007,0.002,0.013,0.004,0.02,0.006c0.038,0.012,0.076,0.02,0.114,0.02c0,0,0.001,0,0.001,0c0.01,0,0.021-0.001,0.031-0.001  c0.009-0.001,0.018-0.003,0.027-0.005c0.012-0.002,0.024-0.003,0.035-0.006c0.005-0.002,0.01-0.002,0.015-0.003  c0.001,0,0.002-0.001,0.003-0.001c0.009-0.003,0.018-0.007,0.026-0.011c0.01-0.003,0.02-0.007,0.03-0.012  c0.011-0.005,0.021-0.011,0.031-0.017C3.993,22.324,4,22.32,4.005,22.315c0.006-0.003,0.012-0.007,0.018-0.011  c0.021-0.017,0.04-0.034,0.056-0.054c0.001,0,0.002-0.001,0.002-0.002c0-0.001,0.001-0.001,0.001-0.001l3.666-4.458l30.187,18.56  l1.571,29.972L8.544,84.218c-0.022,0.014-0.04,0.029-0.061,0.044c-0.029,0.021-0.059,0.039-0.086,0.062  c-0.027,0.022-0.05,0.048-0.074,0.072c-0.021,0.022-0.045,0.045-0.064,0.069c-0.022,0.027-0.041,0.057-0.059,0.085  c-0.018,0.027-0.035,0.054-0.05,0.081c-0.016,0.03-0.028,0.062-0.041,0.095c-0.011,0.029-0.024,0.059-0.033,0.09  c-0.01,0.037-0.017,0.073-0.024,0.111c-0.003,0.021-0.011,0.044-0.014,0.068c0,0.006,0,0.012,0,0.018  c-0.003,0.038-0.002,0.078-0.001,0.117c0.001,0.029,0,0.057,0.002,0.085c0.004,0.032,0.013,0.066,0.02,0.099  c0.007,0.034,0.012,0.068,0.022,0.1c0.008,0.026,0.022,0.051,0.032,0.078c0.015,0.036,0.03,0.072,0.049,0.107  c0.003,0.005,0.004,0.012,0.007,0.018c0.026,0.044,0.056,0.085,0.086,0.124c0.005,0.006,0.011,0.012,0.017,0.019  c0.033,0.04,0.069,0.076,0.107,0.11c0.011,0.01,0.021,0.019,0.032,0.027c0.045,0.037,0.093,0.071,0.144,0.099  c0.005,0.004,0.012,0.006,0.017,0.009c0.047,0.025,0.097,0.046,0.147,0.063c0.014,0.006,0.028,0.01,0.043,0.015  c0.057,0.017,0.116,0.03,0.176,0.037c0.002,0,0.004,0.001,0.008,0.001l65.585,7.057c0.037,0.005,0.074,0.006,0.111,0.006h0.002  c0.006,0,0.012,0,0.018,0c0.018,0,0.037-0.006,0.053-0.006c0.047-0.004,0.092-0.008,0.137-0.018  c0.025-0.005,0.051-0.015,0.072-0.021c0.039-0.012,0.076-0.021,0.111-0.038c0.027-0.011,0.051-0.023,0.076-0.036  c0.031-0.017,0.062-0.034,0.092-0.054c0.023-0.016,0.047-0.032,0.07-0.051c0.025-0.021,0.053-0.044,0.078-0.068  c0.021-0.02,0.039-0.04,0.057-0.062c0.023-0.025,0.047-0.054,0.066-0.083c0.018-0.023,0.033-0.047,0.047-0.071  c0.018-0.03,0.033-0.062,0.047-0.094c0.014-0.026,0.023-0.055,0.035-0.083c0.01-0.031,0.02-0.065,0.029-0.1  c0.006-0.03,0.014-0.061,0.018-0.091c0.002-0.014,0.006-0.025,0.008-0.04c0.002-0.022,0-0.043,0-0.064  c0-0.022,0.006-0.044,0.006-0.066l-0.002-0.065l20.975-19.892c0.002-0.002,0.002-0.004,0.006-0.007  c0.012-0.012,0.021-0.024,0.031-0.035c0.014-0.016,0.027-0.03,0.039-0.047c0.004-0.005,0.008-0.01,0.01-0.014  c0.01-0.012,0.014-0.025,0.023-0.036c0.01-0.019,0.02-0.035,0.029-0.055c0.002-0.008,0.006-0.013,0.008-0.019  c0.006-0.013,0.008-0.025,0.014-0.039c0.006-0.019,0.014-0.036,0.02-0.057c0-0.008,0.004-0.015,0.006-0.023  c0.002-0.013,0.004-0.025,0.004-0.04c0.004-0.012,0.006-0.025,0.008-0.038c0-0.007,0-0.013,0-0.018c0-0.01,0.002-0.02,0.002-0.029  c0-0.003,0-0.005,0-0.009V10.391c0.018-0.015,0.035-0.028,0.051-0.044c0.025-0.023,0.047-0.047,0.068-0.072  c0.021-0.023,0.043-0.046,0.062-0.071C97.039,10.176,97.057,10.146,97.074,10.116z M40.311,78.532  c-0.005-0.004-0.01-0.008-0.015-0.011c-0.011-0.009-0.023-0.018-0.035-0.024c-0.01-0.005-0.021-0.011-0.031-0.018  c-0.012-0.004-0.023-0.01-0.035-0.013c-0.012-0.005-0.024-0.009-0.037-0.013c-0.011-0.002-0.022-0.005-0.035-0.007  c-0.012-0.001-0.025-0.003-0.037-0.004s-0.024-0.001-0.037,0c-0.012,0-0.024,0.001-0.037,0.003  c-0.012,0.001-0.024,0.003-0.036,0.006c-0.012,0.004-0.024,0.006-0.037,0.011c-0.011,0.004-0.022,0.007-0.033,0.014  c-0.013,0.005-0.025,0.012-0.037,0.018c-0.006,0.004-0.012,0.007-0.018,0.01l-3.035,1.981c-0.006,0.004-0.011,0.01-0.018,0.014  c-0.007,0.007-0.014,0.01-0.021,0.017c-0.005,0.005-0.011,0.01-0.016,0.015c-0.006,0.005-0.013,0.013-0.019,0.02  c-0.006,0.007-0.012,0.013-0.018,0.021c-0.004,0.005-0.008,0.01-0.012,0.016c-0.005,0.006-0.01,0.015-0.015,0.021  c-0.005,0.009-0.01,0.017-0.014,0.024c-0.002,0.006-0.006,0.013-0.009,0.018c-0.003,0.008-0.006,0.017-0.009,0.025  c-0.003,0.008-0.006,0.017-0.009,0.026c-0.002,0.006-0.004,0.013-0.005,0.019c-0.002,0.01-0.003,0.021-0.004,0.029  c-0.001,0.006-0.003,0.012-0.004,0.02c0,0.002,0,0.005,0,0.007c0,0.006-0.001,0.013-0.001,0.019c0,0.01,0,0.021,0.001,0.03  c0.001,0.011,0.001,0.021,0.002,0.03c0,0.004,0,0.006,0,0.01c0,0.001,0.001,0.002,0.002,0.002c0.001,0.01,0.004,0.02,0.007,0.029  c0.003,0.014,0.006,0.025,0.01,0.038c0.004,0.011,0.008,0.021,0.013,0.031c0.004,0.01,0.008,0.019,0.013,0.027  c0.001,0.003,0.004,0.006,0.005,0.009c0.001,0,0.001,0.001,0.002,0.001c0.002,0.005,0.003,0.01,0.007,0.013  c0.003,0.005,0.006,0.008,0.01,0.012c0.013,0.018,0.027,0.036,0.043,0.051c0.005,0.006,0.011,0.012,0.017,0.019c0,0,0,0,0,0  c0,0.001,0.002,0.002,0.003,0.003c0.021,0.018,0.042,0.032,0.067,0.045c0.003,0.003,0.007,0.004,0.01,0.005  c0.009,0.004,0.019,0.008,0.027,0.013c0.005,0.001,0.01,0.004,0.016,0.006c0.009,0.002,0.018,0.006,0.026,0.008  c0.009,0.002,0.019,0.004,0.028,0.006c0.011,0.002,0.023,0.006,0.035,0.007l6.112,0.615c0.013,0.001,0.025,0.001,0.038,0.001h0  c0,0,0,0,0,0l0,0c0.001,0,0.001,0,0.001,0c0.042,0,0.085-0.01,0.125-0.023c0.007-0.002,0.013-0.004,0.019-0.005  c0.037-0.017,0.07-0.037,0.102-0.063c0.007-0.006,0.012-0.011,0.018-0.018c0.01-0.008,0.02-0.017,0.027-0.026  c0.019-0.021,0.034-0.045,0.046-0.07c0.002-0.001,0.002-0.005,0.004-0.008c0.02-0.042,0.034-0.086,0.038-0.13v-0.001  c0-0.008,0-0.015,0-0.023c0-0.016,0.002-0.034,0-0.05c0-0.014-0.004-0.025-0.007-0.037c-0.001-0.013-0.003-0.024-0.006-0.037  c-0.004-0.012-0.009-0.023-0.014-0.034c-0.005-0.012-0.009-0.024-0.015-0.035c-0.005-0.011-0.013-0.021-0.02-0.03  c-0.007-0.011-0.013-0.021-0.021-0.031c-0.011-0.014-0.024-0.025-0.037-0.038c-0.005-0.005-0.009-0.011-0.014-0.016l-0.002-0.001  l0,0l-0.911-0.769l30.799-4.732l0.32,15.394l-61.315-6.598l28.793-16.646c0.016-0.01,0.03-0.022,0.045-0.033  c0.031-0.021,0.062-0.04,0.089-0.064c0.025-0.021,0.049-0.042,0.072-0.065c0.006-0.006,0.013-0.011,0.018-0.018l31.869,2.766  l0.092,4.491L41.697,79.7L40.311,78.532z M75.217,70.539l16.697,1.446l-16.613,2.553L75.217,70.539z M74.121,17.881l21.438-7.001  v58.344L82.848,39.212l1.102-4.065c0.004-0.008,0.004-0.017,0.004-0.026c0.004-0.013,0.006-0.026,0.008-0.04  c0.002-0.013,0.002-0.025,0.002-0.037c0-0.013,0-0.025-0.004-0.038c0-0.013-0.004-0.025-0.006-0.038  c-0.002-0.011-0.004-0.024-0.008-0.035c-0.004-0.014-0.01-0.027-0.016-0.04c-0.002-0.008-0.006-0.016-0.01-0.023  c0-0.002-0.002-0.004-0.004-0.007c-0.006-0.013-0.016-0.024-0.023-0.037c-0.006-0.009-0.012-0.018-0.02-0.026  c-0.008-0.01-0.018-0.019-0.027-0.029c-0.008-0.007-0.016-0.017-0.025-0.023c-0.01-0.009-0.02-0.015-0.031-0.022  c-0.01-0.006-0.02-0.014-0.029-0.019c-0.012-0.006-0.023-0.01-0.033-0.014c-0.014-0.006-0.025-0.011-0.037-0.016  c-0.004,0-0.008-0.001-0.01-0.003c-0.008-0.002-0.018-0.002-0.025-0.003c-0.014-0.003-0.027-0.006-0.041-0.007  c-0.012-0.001-0.023,0-0.035,0c-0.014,0-0.025,0-0.039,0.001c-0.012,0.001-0.025,0.004-0.037,0.006s-0.023,0.005-0.035,0.008  c-0.014,0.004-0.025,0.009-0.037,0.015c-0.008,0.004-0.018,0.005-0.025,0.01l-2.393,1.234c-0.006,0.003-0.012,0.008-0.018,0.013  c-0.002,0.001-0.006,0.002-0.008,0.003c-0.004,0.004-0.01,0.006-0.016,0.01c-0.004,0.002-0.008,0.006-0.01,0.01  c-0.012,0.007-0.021,0.015-0.029,0.023c-0.01,0.009-0.02,0.017-0.027,0.026c-0.008,0.009-0.016,0.019-0.023,0.028  c-0.004,0.006-0.01,0.012-0.014,0.018c-0.002,0.004-0.004,0.009-0.008,0.013c-0.006,0.011-0.01,0.021-0.016,0.032  c-0.006,0.012-0.01,0.023-0.016,0.036c-0.004,0.011-0.006,0.022-0.01,0.035c0,0.001,0,0.002,0,0.003  c-0.004,0.006-0.006,0.012-0.006,0.018c0,0.005,0,0.01-0.002,0.015c-0.002,0.012-0.002,0.024-0.004,0.036  c0,0.008-0.002,0.017-0.002,0.025c0,0.001,0,0.001,0,0.002l0.102,7.213c0,0.007,0,0.014,0.002,0.021c0,0.014,0.002,0.027,0.004,0.04  c0.002,0.013,0.006,0.023,0.008,0.036c0.004,0.012,0.008,0.024,0.012,0.035c0.006,0.012,0.01,0.023,0.016,0.035  c0.006,0.01,0.012,0.021,0.016,0.031c0.008,0.01,0.016,0.02,0.023,0.03c0.008,0.01,0.016,0.019,0.023,0.028  c0.008,0.008,0.018,0.017,0.025,0.025c0.01,0.009,0.018,0.016,0.029,0.023c0.01,0.007,0.021,0.014,0.031,0.021  c0.012,0.005,0.021,0.012,0.031,0.016c0.014,0.006,0.027,0.011,0.039,0.015c0.01,0.003,0.014,0.006,0.023,0.008  c0.002,0.001,0.006,0,0.008,0.001c0.029,0.007,0.059,0.012,0.09,0.012h0.002l0,0c0.002,0,0.004,0,0.006,0  c0.035,0,0.07-0.007,0.104-0.018c0.008-0.002,0.016-0.004,0.021-0.007c0.035-0.013,0.066-0.029,0.096-0.05  c0.004-0.003,0.008-0.007,0.012-0.011c0.027-0.021,0.051-0.046,0.072-0.075c0.002-0.003,0.004-0.006,0.006-0.009  c0.021-0.031,0.037-0.066,0.049-0.103c0.002-0.003,0.004-0.007,0.004-0.01l0.863-3.182L94.98,69.825L74.744,47.816L74.121,17.881z   M94.047,69.943L74.961,58.208l-0.191-9.232L94.047,69.943z M94.131,70.896l-18.939-1.645L74.979,59.12L94.131,70.896z   M38.547,8.896l51.76,1.546l-17.541,5.728c-0.016,0.005-0.029,0.014-0.045,0.021c-0.035,0.013-0.068,0.028-0.102,0.045  c-0.027,0.014-0.057,0.03-0.082,0.047c-0.029,0.018-0.055,0.038-0.082,0.058c-0.025,0.021-0.051,0.042-0.076,0.065  c-0.023,0.022-0.045,0.046-0.066,0.069c-0.021,0.025-0.043,0.051-0.061,0.079c-0.02,0.026-0.037,0.054-0.053,0.083  c-0.018,0.028-0.031,0.057-0.045,0.086c-0.014,0.03-0.025,0.061-0.037,0.092c-0.01,0.032-0.02,0.064-0.027,0.097  c-0.006,0.031-0.012,0.062-0.016,0.094c-0.006,0.037-0.008,0.073-0.01,0.11c0,0.017-0.004,0.033-0.004,0.049l0.59,28.374  L58.152,29.773l2.498-2.668c0.002-0.002,0.002-0.006,0.004-0.009c0.029-0.033,0.053-0.071,0.07-0.114  c0.002-0.006,0.006-0.011,0.006-0.017c0.012-0.033,0.02-0.068,0.021-0.104c0-0.008,0-0.015,0-0.022c0-0.007-0.002-0.013-0.002-0.019  c-0.002-0.044-0.012-0.086-0.029-0.126c0-0.005-0.004-0.01-0.006-0.015c-0.02-0.042-0.047-0.078-0.078-0.109  c-0.004-0.002-0.004-0.005-0.006-0.007c-0.002-0.002-0.006-0.003-0.008-0.005c-0.033-0.03-0.072-0.054-0.113-0.07  c-0.006-0.002-0.012-0.005-0.018-0.007c-0.033-0.011-0.068-0.019-0.105-0.021l-5.678-0.268l0,0c-0.002,0-0.002,0-0.002,0  c-0.006,0-0.01,0-0.014,0c-0.006,0-0.01-0.001-0.016-0.001c-0.01,0-0.016,0.002-0.025,0.003c-0.014,0-0.025,0.002-0.039,0.005  c-0.01,0.002-0.02,0.005-0.031,0.008c-0.006,0.001-0.014,0.003-0.02,0.005c0,0,0,0,0,0c-0.01,0.002-0.018,0.006-0.025,0.01  c-0.008,0.002-0.012,0.005-0.018,0.008c-0.018,0.009-0.035,0.019-0.051,0.031c-0.002,0.001-0.004,0.003-0.008,0.005  c-0.018,0.013-0.033,0.028-0.049,0.043c-0.002,0.001-0.002,0.003-0.004,0.004c-0.014,0.017-0.027,0.034-0.041,0.052  c-0.002,0.003-0.002,0.007-0.006,0.011c-0.01,0.016-0.018,0.032-0.025,0.05c-0.002,0.008-0.006,0.016-0.008,0.024  c-0.006,0.014-0.008,0.029-0.012,0.044c-0.004,0.012-0.004,0.024-0.004,0.036c-0.002,0.008-0.004,0.015-0.006,0.023c0,0,0,0,0,0.002  c0,0,0.002,0,0,0.001c0,0.004,0.004,0.009,0.004,0.013c0,0.006-0.004,0.011-0.004,0.017l0.232,6.092  c0,0.049,0.012,0.095,0.031,0.138c0,0.002,0,0.003,0.002,0.005c0.021,0.046,0.051,0.087,0.086,0.121c0,0.001,0,0.001,0,0.002  c0.004,0.001,0.004,0.001,0.006,0.002c0.033,0.031,0.072,0.057,0.117,0.074c0.002,0.001,0.006,0.001,0.008,0.003  c0.041,0.015,0.086,0.024,0.133,0.024l0,0l0,0l0,0c0.004,0,0.01,0,0.014,0c0.012-0.001,0.021-0.003,0.031-0.005  c0.014-0.001,0.025-0.002,0.039-0.005s0.025-0.008,0.039-0.012c0.01-0.004,0.021-0.007,0.031-0.012  c0.016-0.006,0.027-0.015,0.039-0.022c0.01-0.005,0.02-0.01,0.029-0.016c0.016-0.012,0.029-0.025,0.043-0.039  c0.006-0.004,0.012-0.007,0.016-0.011l2.426-2.594l15.047,16.364l0.211,10.236L40.005,36.717L38.547,8.896z M72.906,57.846  l0.232,11.229l-31.581-2.741l-1.503-28.686L72.906,57.846z M75.316,75.312l19.285-2.963L75.629,90.344L75.316,75.312z"></path></svg></g><line x1="34.406000000000006" y1="41" x2="67.30600000000001" y2="41" stroke="#000000" stroke-linecap="round"></line><path fill="#000000" fill-rule="nonzero" d="M5.62 16.73L5.62 16.73Q4.10 16.73 2.80 16.56Q1.49 16.39 0.02 16.32L0.02 16.32Q0 16.18 0 15.74Q0 15.31 0.07 14.98L0.07 14.98L1.03 14.90Q1.25 12.46 1.25 8.41Q1.25 4.37 1.01 2.47L1.01 2.47L0.07 2.40Q0 2.11 0 1.66Q0 1.20 0.02 1.06L0.02 1.06Q1.61 1.03 2.88 0.84Q4.15 0.65 5.62 0.65L5.62 0.65Q8.66 0.65 10.30 2.70Q11.93 4.75 11.93 8.57L11.93 8.57Q11.93 16.73 5.62 16.73ZM5.62 15.02L5.62 15.02Q7.68 15.02 8.77 13.37Q9.86 11.71 9.86 8.58Q9.86 5.45 8.76 3.76Q7.66 2.06 5.59 2.06L5.59 2.06Q4.39 2.06 3.22 2.52L3.22 2.52Q3.05 4.56 3.05 8.45Q3.05 12.34 3.24 14.52L3.24 14.52Q4.37 15.02 5.62 15.02ZM18.24 11.04L18.24 11.04Q17.06 11.04 16.06 10.92L16.06 10.92Q16.10 15.00 18.77 15.00L18.77 15.00Q20.11 15.00 21.74 13.51L21.74 13.51Q22.44 14.23 22.63 15.41L22.63 15.41Q20.66 16.73 18.46 16.73Q16.25 16.73 15.17 15.20Q14.09 13.68 14.09 10.73Q14.09 7.78 15.30 6.34Q16.51 4.90 18.74 4.90L18.74 4.90Q20.40 4.90 21.48 5.90Q22.56 6.91 22.57 8.38Q22.58 9.84 22.32 10.46L22.32 10.46Q20.52 11.04 18.24 11.04ZM18.58 6.24L18.58 6.24Q16.34 6.24 16.08 9.53L16.08 9.53Q17.16 9.65 18.46 9.65Q19.75 9.65 20.47 9.41L20.47 9.41Q20.57 8.81 20.57 8.52L20.57 8.52Q20.57 7.46 20.03 6.85Q19.49 6.24 18.58 6.24ZM28.66 4.90Q30.34 4.90 31.33 5.69Q32.33 6.48 32.33 7.74Q32.33 9.00 31.20 9.00L31.20 9.00Q30.53 9.00 30.16 8.58Q29.78 8.16 29.78 7.58Q29.78 7.01 29.98 6.62L29.98 6.62Q29.40 6.17 28.61 6.17Q27.82 6.17 27.30 6.55Q26.78 6.94 26.78 7.68Q26.78 8.42 27.37 8.98Q27.96 9.53 28.80 9.88Q29.64 10.22 30.48 10.60Q31.32 10.97 31.91 11.65Q32.50 12.34 32.50 13.34L32.50 13.34Q32.50 14.90 31.45 15.82Q30.41 16.73 28.61 16.73Q26.81 16.73 25.67 15.96Q24.53 15.19 24.53 13.94L24.53 13.94L24.53 13.85Q24.53 12.55 25.66 12.55L25.66 12.55Q26.33 12.55 26.70 12.97Q27.07 13.39 27.07 13.94Q27.07 14.50 26.95 14.81L26.95 14.81Q27.43 15.12 28.48 15.12Q29.52 15.12 30.06 14.76Q30.60 14.40 30.60 13.76Q30.60 13.13 30.01 12.62Q29.42 12.12 28.58 11.77Q27.74 11.42 26.90 11.03Q26.06 10.63 25.48 9.89Q24.89 9.14 24.89 8.11L24.89 8.11Q24.89 6.62 25.93 5.76Q26.98 4.90 28.66 4.90ZM34.85 15.05L35.69 14.98Q35.90 12.62 35.90 10.67Q35.90 8.71 35.71 6.60L35.71 6.60L34.82 6.53Q34.75 6.12 34.75 5.75Q34.75 5.38 34.78 5.18L34.78 5.18Q36.17 5.14 37.75 4.97L37.75 4.97L37.87 5.09Q37.66 6.50 37.66 9.84Q37.66 13.18 37.87 14.98L37.87 14.98L38.76 15.05Q38.81 15.43 38.81 15.71Q38.81 15.98 38.74 16.39L38.74 16.39Q37.90 16.37 36.79 16.37Q35.69 16.37 34.87 16.39L34.87 16.39Q34.80 16.03 34.80 15.65Q34.80 15.26 34.85 15.05L34.85 15.05ZM38.11 1.66L38.11 1.66Q38.11 3.14 36.58 3.14L36.58 3.14Q35.38 3.14 35.38 1.92L35.38 1.92Q35.38 0.41 36.91 0.41L36.91 0.41Q38.11 0.41 38.11 1.66ZM45.10 4.90L45.10 4.90Q45.38 4.90 45.53 4.92L45.53 4.92Q47.04 2.62 48.82 2.62L48.82 2.62Q50.38 2.62 50.38 4.13L50.38 4.13Q50.38 5.18 49.33 5.18Q48.29 5.18 48.12 4.10L48.12 4.10Q47.42 4.10 46.82 5.14L46.82 5.14Q49.15 5.90 49.15 8.98L49.15 8.98Q49.15 10.85 48.41 12.10L48.41 12.10Q47.57 13.49 45.10 13.49L45.10 13.49Q44.06 13.49 43.42 13.25L43.42 13.25Q42.91 14.14 42.67 15.19L42.67 15.19Q43.08 15.26 43.54 15.26Q43.99 15.26 45.36 15.10Q46.73 14.93 47.33 14.93L47.33 14.93Q48.58 14.93 49.34 15.55Q50.11 16.18 50.11 17.47Q50.11 18.77 49.27 19.73L49.27 19.73Q47.81 21.41 44.71 21.41L44.71 21.41Q42.62 21.41 41.52 20.88Q40.42 20.35 40.42 18.91L40.42 18.91Q40.42 17.86 41.54 16.73L41.54 16.73Q41.09 16.39 41.09 15.79L41.09 15.79Q41.09 14.52 42.31 12.67L42.31 12.67Q41.04 11.64 41.04 8.98L41.04 8.98Q41.04 4.90 45.10 4.90ZM42.98 9.00Q42.98 11.83 45.10 11.83Q47.21 11.83 47.21 9.00Q47.21 6.17 45.10 6.17Q42.98 6.17 42.98 9.00ZM42.36 18.55L42.36 18.55Q42.36 20.09 45.17 20.09L45.17 20.09Q46.37 20.09 47.32 19.56Q48.26 19.03 48.26 17.98L48.26 17.98Q48.26 16.80 46.99 16.80L46.99 16.80Q46.37 16.80 45.02 16.96Q43.68 17.11 42.86 17.11L42.86 17.11L42.67 17.11Q42.36 17.78 42.36 18.55ZM61.63 7.97L61.63 7.97L61.61 10.30Q61.61 12.82 61.90 14.98L61.90 14.98L62.74 15.05Q62.78 15.58 62.78 15.78Q62.78 15.98 62.71 16.39L62.71 16.39Q62.04 16.37 60.70 16.37Q59.35 16.37 58.78 16.39L58.78 16.39Q58.70 16.03 58.70 15.71Q58.70 15.38 58.75 15.05L58.75 15.05L59.59 14.98Q59.78 12.17 59.78 10.16Q59.78 8.16 59.39 7.30Q58.99 6.43 58.03 6.43L58.03 6.43Q56.74 6.43 55.18 7.99L55.18 7.99Q55.15 8.62 55.15 10.91Q55.15 13.20 55.37 14.98L55.37 14.98L56.26 15.05Q56.30 15.58 56.30 15.78Q56.30 15.98 56.23 16.39L56.23 16.39Q55.56 16.37 54.26 16.37Q52.97 16.37 52.37 16.39L52.37 16.39Q52.30 16.03 52.30 15.71Q52.30 15.38 52.34 15.05L52.34 15.05L53.18 14.98Q53.40 12.58 53.40 10.57Q53.40 8.57 53.21 6.60L53.21 6.60L52.32 6.53Q52.25 6.12 52.25 5.72Q52.25 5.33 52.27 5.18L52.27 5.18Q53.50 5.16 55.25 4.97L55.25 4.97L55.37 5.09Q55.32 5.38 55.22 6.53L55.22 6.53Q55.97 5.78 56.95 5.34Q57.94 4.90 58.80 4.90L58.80 4.90Q61.63 4.90 61.63 7.97ZM68.45 14.98L69.31 15.05Q69.36 15.43 69.36 15.71Q69.36 15.98 69.29 16.39L69.29 16.39Q68.45 16.37 67.34 16.37Q66.24 16.37 65.42 16.39L65.42 16.39Q65.35 16.03 65.35 15.76Q65.35 15.48 65.40 15.05L65.40 15.05L66.24 14.98Q66.43 12.38 66.43 8.36Q66.43 4.34 66.22 2.35L66.22 2.35L65.40 2.28Q65.35 1.90 65.35 1.62Q65.35 1.34 65.42 0.94L65.42 0.94Q66.26 0.96 67.37 0.96Q68.47 0.96 69.29 0.94L69.29 0.94Q69.36 1.30 69.36 1.57Q69.36 1.85 69.31 2.28L69.31 2.28L68.40 2.35Q68.23 4.46 68.23 7.75L68.23 7.75Q69.53 7.90 71.35 7.90Q73.18 7.90 74.83 7.70L74.83 7.70Q74.78 3.89 74.62 2.35L74.62 2.35L73.80 2.28Q73.75 1.90 73.75 1.62Q73.75 1.34 73.82 0.94L73.82 0.94Q74.66 0.96 75.77 0.96Q76.87 0.96 77.69 0.94L77.69 0.94Q77.76 1.30 77.76 1.57Q77.76 1.85 77.71 2.28L77.71 2.28L76.80 2.35Q76.63 4.30 76.63 8.38Q76.63 12.46 76.85 14.98L76.85 14.98L77.71 15.05Q77.76 15.43 77.76 15.71Q77.76 15.98 77.69 16.39L77.69 16.39Q76.85 16.37 75.74 16.37Q74.64 16.37 73.82 16.39L73.82 16.39Q73.75 16.03 73.75 15.76Q73.75 15.48 73.80 15.05L73.80 15.05L74.64 14.98Q74.78 12.89 74.83 9.62L74.83 9.62Q73.30 9.46 71.35 9.46Q69.41 9.46 68.23 9.62L68.23 9.62Q68.28 13.03 68.45 14.98L68.45 14.98ZM81.29 13.27L81.29 13.27L81.31 10.70Q81.31 8.57 81.12 6.60L81.12 6.60L80.23 6.53Q80.16 6.14 80.16 5.74Q80.16 5.33 80.18 5.18L80.18 5.18Q81.41 5.16 83.16 4.97L83.16 4.97L83.28 5.09Q83.06 6.50 83.06 10.15L83.06 10.15L83.06 11.28Q83.06 13.30 83.44 14.15Q83.81 15.00 84.70 15.00L84.70 15.00Q85.94 15.00 87.41 13.54L87.41 13.54Q87.46 12.98 87.46 11.40L87.46 11.40L87.46 10.70Q87.46 8.57 87.26 6.60L87.26 6.60L86.38 6.53Q86.30 6.12 86.30 5.72Q86.30 5.33 86.33 5.18L86.33 5.18Q87.55 5.16 89.30 4.97L89.30 4.97L89.42 5.09Q89.21 6.50 89.21 10.15L89.21 10.15L89.21 10.92Q89.21 12.89 89.42 14.76L89.42 14.76L90.31 14.81Q90.36 15.34 90.36 15.59Q90.36 15.84 90.29 16.20L90.29 16.20Q89.35 16.25 87.67 16.44L87.67 16.44Q87.48 16.01 87.38 15.24L87.38 15.24Q85.58 16.73 84.07 16.73Q82.56 16.73 81.92 15.89Q81.29 15.05 81.29 13.27ZM99.67 9.86L99.67 9.86Q99.67 6.43 97.63 6.43L97.63 6.43Q96.17 6.43 94.85 7.99L94.85 7.99L94.85 14.45Q95.95 15.00 97.18 15.00L97.18 15.00Q99.67 15.00 99.67 9.86ZM94.85 6.53L94.85 6.53Q96.53 4.90 98.23 4.90Q99.94 4.90 100.82 6.29Q101.71 7.68 101.71 10.18L101.71 10.18Q101.71 13.56 100.55 15.14Q99.38 16.73 96.89 16.73L96.89 16.73Q95.33 16.73 92.74 16.10L92.74 16.10Q93.12 13.75 93.12 8.47Q93.12 3.19 93.00 1.63L93.00 1.63L92.04 1.56Q91.97 1.27 91.97 0.82Q91.97 0.36 91.99 0.22L91.99 0.22Q94.13 0.12 95.11 0L95.11 0L95.21 0.12Q94.87 3.00 94.85 6.53Z" transform="translate(0, 47)"></path></svg>